<?xml version="1.0" encoding="UTF-8" standalone="no"?>
<!-- Created with Inkscape (http://www.inkscape.org/) -->

<svg
   width="440"
   height="440"
   viewBox="0 0 116.41668 116.41668"
   version="1.1"
   id="svg1"
   xml:space="preserve"
   sodipodi:docname="icon.svg"
   inkscape:version="1.4.2 (f4327f4, 2025-05-13)"
   xmlns:inkscape="http://www.inkscape.org/namespaces/inkscape"
   xmlns:sodipodi="http://sodipodi.sourceforge.net/DTD/sodipodi-0.dtd"
   xmlns="http://www.w3.org/2000/svg"
   xmlns:svg="http://www.w3.org/2000/svg"><sodipodi:namedview
     id="namedview1"
     pagecolor="#ffffff"
     bordercolor="#000000"
     borderopacity="0.25"
     inkscape:showpageshadow="2"
     inkscape:pageopacity="0.0"
     inkscape:pagecheckerboard="0"
     inkscape:deskcolor="#d1d1d1"
     inkscape:document-units="mm"
     inkscape:zoom="1.4396184"
     inkscape:cx="118.78148"
     inkscape:cy="165.32159"
     inkscape:window-width="1920"
     inkscape:window-height="1010"
     inkscape:window-x="-6"
     inkscape:window-y="-6"
     inkscape:window-maximized="1"
     inkscape:current-layer="layer1"
     showgrid="false"
     inkscape:lockguides="true"><inkscape:grid
       id="grid10"
       units="mm"
       originx="0"
       originy="0"
       spacingx="1.0000001"
       spacingy="1.0000001"
       empcolor="#0099e5"
       empopacity="0.30196078"
       color="#0099e5"
       opacity="0.14901961"
       empspacing="5"
       enabled="true"
       visible="false" /></sodipodi:namedview><defs
     id="defs1" /><g
     inkscape:label="Capa 1"
     inkscape:groupmode="layer"
     id="layer1"
     transform="translate(-49.445308,-44.381347)"><g
       id="g10"
       transform="translate(8.3798823,2.5423078)"><path
         style="fill:#0e9a3d;fill-opacity:1"
         d="M 101.90487,155.99742 C 93.938929,155.21 86.80615,149.28646 84.928257,141.89888 c -0.515395,-2.02755 -0.513357,-5.68515 0.0043,-7.67248 0.926713,-3.55789 3.619579,-7.03546 6.621261,-8.55071 6.920811,-3.49361 15.336032,0.21663 16.147302,7.11929 0.32031,2.72534 -0.86147,4.95961 -3.12301,5.90431 -2.83682,1.185 -5.669431,-0.50856 -5.034491,-3.01003 0.468481,-1.84565 -0.57368,-3.17753 -2.49433,-3.18776 -2.2242,-0.0119 -3.68441,2.22937 -3.47942,5.34043 0.21616,3.28041 2.3875,6.39872 5.45765,7.83782 1.333441,0.62504 1.827461,0.70649 4.285321,0.70649 2.61374,0 2.88533,-0.0524 4.58992,-0.88575 4.46053,-2.18067 7.57452,-7.41984 7.57241,-12.74029 -0.003,-7.36121 -4.79773,-13.5888 -12.38282,-16.08308 -1.78248,-0.58616 -2.50974,-0.67013 -5.997221,-0.6925 -4.486593,-0.0288 -6.068954,0.28213 -9.369217,1.84092 -6.225268,2.94035 -10.696983,8.60198 -13.572097,17.18362 -1.0507,3.13612 -1.353474,3.68583 -2.335703,3.68583 -1.651895,0 -8.606112,-0.0533 -21.306903,-0.0533 -0.998198,0 -1.10388,-1.96325 4.976147,-13.47277 2.983347,-5.64749 7.36116,-14.01863 9.728474,-18.60254 2.367314,-4.58391 6.355362,-12.263435 8.86233,-17.065622 2.506967,-4.802187 6.319145,-12.124531 8.471506,-16.271874 2.15236,-4.147344 4.605386,-8.833853 5.451168,-10.414466 2.576109,-4.81428 2.612011,-4.96414 2.612011,-10.902915 0,-5.487433 0.154943,-6.357639 1.315799,-7.38991 0.534579,-0.475365 0.948525,-0.526533 4.071415,-0.503262 17.796811,0.132613 37.489151,11.066747 47.604711,26.432428 2.8971,4.400737 4.95979,9.184644 4.94601,11.471098 -0.009,1.429381 -0.80873,2.926245 -2.31193,4.325214 -4.39127,4.086758 -11.61262,6.825822 -19.99813,7.585307 -1.57795,0.142917 -2.92969,0.320537 -3.00387,0.394713 -0.11459,0.114592 6.15532,12.609839 10.24095,20.409079 0.68608,1.30969 3.40697,6.61915 6.04643,11.79882 5.26563,10.33323 6.7372,13.14069 4.77805,13.14188 l -10.24275,0.006 -8.98718,0.0761 -0.59493,1.64374 c -2.35997,6.52031 -7.56838,11.68805 -13.94916,13.84027 -2.20484,0.74368 -5.96926,1.11659 -8.62337,0.85424 z m 5.87798,-53.24229 c 0.33031,-0.29887 0.55705,-0.82678 0.55705,-1.29695 0,-0.77867 -9.105981,-19.090832 -9.991671,-20.093289 -0.225,-0.254662 -0.66984,-0.463021 -0.98853,-0.463021 -0.3187,0 -0.76403,0.208359 -0.98962,0.463021 -0.5388,0.608221 -9.990591,19.534409 -9.990591,20.005069 0,0.19945 0.242895,0.67142 0.539766,1.04883 0.649905,0.82622 0.859746,0.84037 12.463075,0.84037 7.341731,0 7.879101,-0.0322 8.400521,-0.50403 z M 125.655,79.174897 c 3.42544,-0.892214 5.80287,-3.908477 5.80287,-7.362149 0,-5.142232 -4.88281,-8.865796 -9.77847,-7.456917 -2.06454,0.594138 -4.29968,2.780493 -5.00094,4.891781 -1.41127,4.248935 1.05505,8.904515 5.24337,9.89772 2.10799,0.49988 3.73317,0.02957 3.73317,0.02957 z"
         id="path1"
         sodipodi:nodetypes="cscsssscsssscssssssssssssssscssssssccssccssssssssssssssss" /><circle
         style="fill:#0e9a3d;fill-opacity:1;stroke-width:0.264583"
         id="path10-5"
         cx="123.56528"
         cy="71.927147"
         r="3.0324876" /></g></g></svg>
